<svg xmlns="http://www.w3.org/2000/svg" width="128" height="128" viewBox="0 0 25 25" xml:space="preserve"><title>Hardwood grayscale logo on amber</title><desc>Transparency preview: Hardwood grayscale logo composited on a warm amber background drawn from the project's brand palette.</desc><rect width="25" height="25" fill="#b9661f"/><path fill="#999" d="m10.501 16.875 1.288 2.109.687-1.507z"/><path fill="#7f7f7f" d="m13.536 10.969 1.71 1.406-1.496 2.808-3.249 2.092z"/><path fill="#333" d="m13.719 10.813-3.078 6.232-1.065 1.752-3.152 2.102 2.291-5.742z"/><path fill="#8c8c8c" d="m7.551 4.89 5.113-1.192-.777 1.865z"/><path fill="#4c4c4c" d="m7.551 4.894 6.019 6.127.664-2.725z"/><path fill="#999" d="m14.784 5.018-2.12-1.32-.81 1.761z"/><path fill="#4c4c4c" d="m11.854 5.463-1.526 2.088-2.777-2.657z"/><path fill="#46484d" d="m18.409 6.278-3.739-.056.114-1.204z"/><path fill="#222529" d="m14.67 6.222-.139 1.134 3.878-1.078z"/><path fill="#7f7f7f" d="m11.854 5.459 2.38 2.852-4.008-.694z"/><path fill="#e5e5e5" d="m11.887 5.474 2.347 2.837.312-.937.238-2.356z"/><circle fill="#222529" cx="13.804" cy="5.912" r=".423"/><path fill="#666" d="m14.217 8.276 1.029 4.099-1.728-1.408z"/><path fill="#b2b2b2" d="m10.239 7.619 3.331 3.402-4.791-1.099z"/><path fill="#ccc" d="m8.779 9.922 4.78 1.087L9.576 14.5z"/><path fill="#b2b2b2" d="m8.779 9.922-2.396 7.482L9.576 14.5z"/><path fill="#a5a5a5" d="m10.773 17.075 1.709.407 1.322-2.4z"/><path fill="#333" d="m12.469 17.482 2.229 1.497-2.909.005z"/><circle fill="#222529" cx="15.652" cy="5.699" r=".135"/></svg>
